<?xml version="1.0" encoding="utf-8"?>
<!-- Generator: Adobe Illustrator 19.2.1, SVG Export Plug-In . SVG Version: 6.00 Build 0)  -->
<svg version="1.1" id="Capa_1" xmlns="http://www.w3.org/2000/svg" xmlns:xlink="http://www.w3.org/1999/xlink" x="0px" y="0px"
	 viewBox="0 0 482 482" style="enable-background:new 0 0 482 482;" xml:space="preserve">
<style type="text/css">
	.st0{fill:#2183EE;}
	.st1{fill:#FFFFFF;}
</style>
<circle class="st0" cx="241" cy="241" r="241"/>
<g>
	<path id="Behance" class="st1" d="M378.1,165.1h-85.2V144h85.2L378.1,165.1L378.1,165.1z M236.1,251.9c5.5,8.5,8.2,18.9,8.2,31
		c0,12.6-3.1,23.8-9.4,33.8c-4,6.6-9,12.1-15,16.6c-6.7,5.2-14.7,8.7-23.9,10.6c-9.2,1.9-19.2,2.9-29.9,2.9H70.9V135.2h102.2
		c25.8,0.4,44,7.9,54.8,22.5c6.5,9,9.7,19.8,9.7,32.3c0,12.9-3.2,23.3-9.8,31.2c-3.6,4.4-9,8.4-16.1,12
		C222.5,237.2,230.7,243.4,236.1,251.9z M119.7,218.6h44.8c9.2,0,16.6-1.7,22.4-5.2c5.7-3.5,8.6-9.7,8.6-18.6
		c0-9.8-3.8-16.4-11.4-19.5c-6.5-2.2-14.9-3.3-25-3.3h-39.4V218.6z M199.8,279.9c0-11-4.5-18.6-13.5-22.7c-5-2.3-12.1-3.5-21.2-3.6
		h-45.4v56.4h44.7c9.2,0,16.3-1.2,21.4-3.7C195.2,301.7,199.8,293,199.8,279.9z M409.7,245.5c1,6.9,1.5,17,1.3,30.1H300.6
		c0.6,15.2,5.9,25.9,15.8,32c6,3.8,13.3,5.7,21.8,5.7c9,0,16.3-2.3,22-7c3.1-2.5,5.8-6,8.1-10.4h40.5c-1.1,9-5.9,18.1-14.7,27.4
		c-13.6,14.7-32.6,22.1-57,22.1c-20.2,0-38-6.2-53.4-18.7c-15.4-12.5-23.1-32.7-23.1-60.7c0-26.3,6.9-46.4,20.9-60.4
		c14-14,32-21,54.2-21c13.2,0,25.1,2.4,35.6,7.1c10.6,4.7,19.3,12.2,26.2,22.4C403.8,223.2,407.8,233.6,409.7,245.5z M369.9,249.4
		c-0.7-10.5-4.3-18.5-10.6-24c-6.3-5.5-14.1-8.2-23.5-8.2c-10.2,0-18.1,2.9-23.6,8.7c-5.6,5.8-9.1,13.6-10.6,23.5L369.9,249.4
		L369.9,249.4z"/>
</g>
</svg>
