<?xml version="1.0" encoding="utf-8"?>
<!-- Generator: Adobe Illustrator 19.2.1, SVG Export Plug-In . SVG Version: 6.00 Build 0)  -->
<svg version="1.1" id="Capa_1" xmlns="http://www.w3.org/2000/svg" xmlns:xlink="http://www.w3.org/1999/xlink" x="0px" y="0px"
	 viewBox="0 0 470.1 470.1" style="enable-background:new 0 0 470.1 470.1;" xml:space="preserve">
<style type="text/css">
	.st0{fill:#2183EE;}
</style>
<title>close-icon</title>
<g id="web">
	<g id="clse">
		<path id="clse-2" class="st0" d="M337.2,30.7L235,133.2L132.9,30.7C109.3-2.2,63.6-9.9,30.7,13.7s-40.5,69.3-17,102.2
			c4.7,6.6,10.4,12.3,17,17L132.9,235L30.7,337.2c-32.9,23.5-40.5,69.3-17,102.2c23.5,32.9,69.3,40.5,102.2,17
			c6.6-4.7,12.3-10.4,17-17L235,337.2l102.2,102.2c23.5,32.9,69.3,40.5,102.2,17c32.9-23.5,40.5-69.3,17-102.2
			c-4.7-6.6-10.4-12.3-17-17L337.2,235l102.2-102.2c32.9-23.5,40.5-69.3,17-102.2c-23.5-32.9-69.3-40.5-102.2-17
			C347.7,18.4,341.9,24.1,337.2,30.7z"/>
	</g>
</g>
</svg>
