<?xml version="1.0" encoding="utf-8"?>
<!-- Generator: Adobe Illustrator 19.2.1, SVG Export Plug-In . SVG Version: 6.00 Build 0)  -->
<svg version="1.1" id="Capa_1" xmlns="http://www.w3.org/2000/svg" xmlns:xlink="http://www.w3.org/1999/xlink" x="0px" y="0px"
	 viewBox="0 0 473.6 449.9" style="enable-background:new 0 0 473.6 449.9;" xml:space="preserve">
<style type="text/css">
	.st0{fill:#2183EE;}
</style>
<path class="st0" d="M236.8,0C106.2,0,0,95.6,0,213.1c0,41.1,13,80.9,37.6,115.3C33,380,20.5,418.3,2.3,436.4
	c-2.4,2.4-3,6.1-1.5,9.1c1.3,2.7,4.1,4.4,7.1,4.4c0.4,0,0.7,0,1.1-0.1c3.2-0.4,77.5-11.1,131.2-42.1c30.5,12.3,63,18.5,96.6,18.5
	c130.6,0,236.8-95.6,236.8-213.1S367.4,0,236.8,0z M126.3,244.7c-17.4,0-31.6-14.2-31.6-31.6s14.2-31.6,31.6-31.6
	s31.6,14.2,31.6,31.6S143.7,244.7,126.3,244.7z M236.8,244.7c-17.4,0-31.6-14.2-31.6-31.6s14.2-31.6,31.6-31.6s31.6,14.2,31.6,31.6
	S254.2,244.7,236.8,244.7z M347.3,244.7c-17.4,0-31.6-14.2-31.6-31.6s14.2-31.6,31.6-31.6s31.6,14.2,31.6,31.6
	S364.7,244.7,347.3,244.7z"/>
</svg>
