<?xml version="1.0" encoding="utf-8"?>
<!-- Generator: Adobe Illustrator 19.2.1, SVG Export Plug-In . SVG Version: 6.00 Build 0)  -->
<svg version="1.1" id="Capa_1" xmlns="http://www.w3.org/2000/svg" xmlns:xlink="http://www.w3.org/1999/xlink" x="0px" y="0px"
	 viewBox="0 0 570.3 385.6" style="enable-background:new 0 0 570.3 385.6;" xml:space="preserve">
<style type="text/css">
	.st0{fill:#2183EE;}
</style>
<path class="st0" d="M544.8,100.4c-2-4.8-6.6-7.7-11.6-7.7h-59.1l68.2-69c3.6-3.7,4.7-9.1,2.7-13.7c-2-4.8-6.6-7.7-11.6-7.7H210.1
	c-3.3,0-6.6,1.3-9.1,3.8L28.9,180.4c-3.6,3.7-4.7,9.1-2.7,13.7c2,4.8,6.6,7.7,11.6,7.7h59.1l-68,69.1c-3.6,3.7-4.7,9.1-2.7,13.7
	c2,4.8,6.6,7.7,11.6,7.7h323.1c3.3,0,6.6-1.3,9.1-3.8l79.1-80.2h53.8L355.6,357.8h-287l29.1-28.9c2.5-2.3,3.7-5.5,3.7-9
	c0-3.4-1.3-6.6-3.7-9c-2.3-2.5-5.5-3.7-9-3.7l0,0c-3.3,0-6.5,1.3-9,3.7L29,361.5c-3.7,3.7-4.8,9.1-2.8,13.9s6.6,7.8,11.6,7.8h323.1
	c3.3,0,6.6-1.3,9.1-3.8l172.3-174.6c3.6-3.7,4.7-9.1,2.7-13.7c-2-4.8-6.6-7.7-11.6-7.7h-59.2l68.2-69.3
	C545.8,110.6,546.9,105.2,544.8,100.4z M355.6,267.2H68.2l64.4-65.2H361c3.3,0,6.6-1.3,9.1-3.8l79.1-80.2H503L355.6,267.2z
	 M355.6,176.6H68.2L215.5,27.3H503L355.6,176.6z"/>
</svg>
