<?xml version="1.0" encoding="utf-8"?>
<!-- Generator: Adobe Illustrator 19.2.1, SVG Export Plug-In . SVG Version: 6.00 Build 0)  -->
<svg version="1.1" id="Capa_1" xmlns="http://www.w3.org/2000/svg" xmlns:xlink="http://www.w3.org/1999/xlink" x="0px" y="0px"
	 viewBox="0 0 463 444.2" style="enable-background:new 0 0 463 444.2;" xml:space="preserve">
<style type="text/css">
	.st0{fill:#2183EE;}
</style>
<g>
	<g>
		<path class="st0" d="M75.6,141.8H15.1c-8.3,0-15.1,6.8-15.1,15.1v272.1c0,8.3,6.8,15.1,15.1,15.1h60.5c8.3,0,15.1-6.8,15.1-15.1
			V156.9C90.7,148.6,83.9,141.8,75.6,141.8z"/>
	</g>
</g>
<g>
	<g>
		<path class="st0" d="M425.3,141.8c-2.4-0.4-116.4,0-116.4,0l15.9-43.4c11-30,3.9-75.8-26.6-92.1c-9.9-5.3-23.8-8-35-5.2
			c-6.4,1.6-12,5.9-15.4,11.5c-3.9,6.5-3.5,14.2-4.8,21.4c-3.5,18.4-12.2,35.9-25.6,49c-23.5,22.9-96.4,88.9-96.4,88.9v241.9h252
			c34,0,56.3-37.9,39.5-67.6c20-12.8,26.8-39.8,15.1-60.5c20-12.8,26.8-39.8,15.1-60.5C477.1,203.3,465.6,148.6,425.3,141.8z"/>
	</g>
</g>
</svg>
