<?xml version="1.0" encoding="utf-8"?>
<!-- Generator: Adobe Illustrator 19.2.1, SVG Export Plug-In . SVG Version: 6.00 Build 0)  -->
<svg version="1.1" id="Capa_1" xmlns="http://www.w3.org/2000/svg" xmlns:xlink="http://www.w3.org/1999/xlink" x="0px" y="0px"
	 viewBox="0 0 265.3 311.5" style="enable-background:new 0 0 265.3 311.5;" xml:space="preserve">
<style type="text/css">
	.st0{fill:#2183EE;}
</style>
<g>
	<g>
		<g>
			<path class="st0" d="M132.7,163.8c-35.5,0-64.3-55.7-64.3-92c0-35.4,28.8-64.3,64.3-64.3S197,36.3,197,71.8
				C196.9,108.1,168.1,163.8,132.7,163.8z M132.7,18.4c-29.5,0-53.4,24-53.4,53.4c0,30.6,25,81.1,53.4,81.1
				c28.5,0,53.4-50.6,53.4-81.1C186.1,42.3,162.1,18.4,132.7,18.4z"/>
			<path class="st0" d="M132.7,171.3c-41,0-71.8-60.3-71.8-99.5C60.9,32.2,93.1,0,132.7,0s71.8,32.2,71.8,71.8
				C204.4,110.9,173.6,171.3,132.7,171.3z M132.7,25.9c-25.3,0-45.9,20.6-45.9,45.9c0,14,5.9,32.9,15,48.2
				c9.6,16.2,20.9,25.4,30.9,25.4s21.3-9.3,30.9-25.4c9.1-15.3,15-34.2,15-48.2C178.6,46.5,158,25.9,132.7,25.9z"/>
		</g>
	</g>
	<g>
		<g>
			<path class="st0" d="M252.4,304c-3,0-5.4-2.4-5.4-5.4c0-58.5-51.3-106.1-114.3-106.1S18.4,240.1,18.4,298.6c0,3-2.4,5.4-5.4,5.4
				s-5.4-2.4-5.4-5.4c0-64.5,56.1-116.9,125.2-116.9S258,234.2,258,298.6C257.8,301.5,255.4,304,252.4,304z"/>
			<path class="st0" d="M252.4,311.5c-7.1,0-12.9-5.8-12.9-12.9c0-54.4-47.9-98.6-106.8-98.6S25.9,244.2,25.9,298.6
				c0,7.1-5.8,12.9-12.9,12.9s-13-5.8-13-13c0-68.6,59.5-124.4,132.7-124.4c73.1,0,132.7,55.8,132.7,124.4
				C265.3,305.7,259.5,311.5,252.4,311.5z"/>
		</g>
	</g>
</g>
</svg>
