<?xml version="1.0" encoding="utf-8"?>
<!-- Generator: Adobe Illustrator 19.2.1, SVG Export Plug-In . SVG Version: 6.00 Build 0)  -->
<svg version="1.1" id="Capa_1" xmlns="http://www.w3.org/2000/svg" xmlns:xlink="http://www.w3.org/1999/xlink" x="0px" y="0px"
	 viewBox="0 0 308.6 308.4" style="enable-background:new 0 0 308.6 308.4;" xml:space="preserve">
<style type="text/css">
	.st0{fill:#FFFFFF;}
</style>
<path class="st0" d="M162.3,300.8V162.3h138.5c4.5,0,7.8-3.4,7.8-7.8s-3.4-7.8-7.8-7.8l-138.3-0.2V7.8c0-4.5-3.4-7.8-7.8-7.8
	c-4.5,0-7.8,3.4-7.8,7.8l0,138.5l-139,0c-4.5,0-7.8,3.4-7.8,7.8c0,4.5,3.4,7.8,7.8,7.8l138.5,0v138.5c0,4.5,3.4,7.8,7.8,7.8
	C158.9,308.6,162.3,305.3,162.3,300.8z"/>
</svg>
