<svg id="Capa_1" data-name="Capa 1" xmlns="http://www.w3.org/2000/svg" viewBox="0 0 463.55 463.34"><defs><style>.cls-1{fill:#2183ee;}</style></defs><title>tag-icon</title><path class="cls-1" d="M445.75,256.35l-179.9-180a50.17,50.17,0,0,0-35.6-14.8c-1.1,0-2.2,0-3.3.1l-130.1,8.6a28.39,28.39,0,0,0-26.4,26.4l-3.1,46.2a89.66,89.66,0,0,1-18.6-14.3c-13.9-13.9-22.5-31.2-24.3-48.8-1.7-16.7,3.1-31.6,13.5-42,22.1-22.1,62.8-17.2,90.9,10.8a12,12,0,0,0,17-17c-37.6-37.3-93.6-42.1-125-10.7C5.25,36.45-1.95,58.15.45,82.25c2.3,23.1,13.4,45.6,31.2,63.4a111.67,111.67,0,0,0,33.9,23.3l-3.8,57.9a50.29,50.29,0,0,0,14.7,39l180,180a59.74,59.74,0,0,0,42.6,17.6h0a60.16,60.16,0,0,0,42.6-17.6L446,341.55A60.11,60.11,0,0,0,445.75,256.35Zm-16.9,68.1-104.4,104.4a36,36,0,0,1-25.6,10.6h0a36,36,0,0,1-25.6-10.6l-180-180a26.35,26.35,0,0,1-7.7-20.4l3.5-52.4c2,0.3,4,.6,6,0.8,3,0.3,6,.5,8.9.5,20.5,0,38.8-7.2,52.4-20.8a12,12,0,0,0-17-17c-10.4,10.4-25.3,15.2-42,13.5-2.3-.2-4.5-0.6-6.7-1l3.6-53.6a4.41,4.41,0,0,1,4.1-4.1l130.1-8.6c0.6,0,1.2-.1,1.8-0.1a26.57,26.57,0,0,1,18.7,7.7l179.9,179.9A36.21,36.21,0,0,1,428.85,324.45Z" transform="translate(0 -0.11)"/></svg>