<?xml version="1.0" encoding="utf-8"?>
<!-- Generator: Adobe Illustrator 19.2.1, SVG Export Plug-In . SVG Version: 6.00 Build 0)  -->
<svg version="1.1" id="Capa_1" xmlns="http://www.w3.org/2000/svg" xmlns:xlink="http://www.w3.org/1999/xlink" x="0px" y="0px"
	 viewBox="0 0 475.7 316.4" style="enable-background:new 0 0 475.7 316.4;" xml:space="preserve">
<style type="text/css">
	.st0{fill:#2183EE;}
</style>
<g>
	<g>
		<path class="st0" d="M237.8,316.4c-70.8,0-130.1-36.6-167.3-67.3C31,216.5,0,176.5,0,158.2s31-58.3,70.5-90.9
			C107.8,36.6,167,0,237.8,0c70.8,0,130.1,36.6,167.3,67.3c39.5,32.6,70.5,72.5,70.5,90.9s-31,58.3-70.5,90.9
			C367.9,279.8,308.7,316.4,237.8,316.4z M24.4,158.2C26,165.9,47,198.7,88.2,232c33.8,27.4,87.1,60,149.7,60s115.9-32.6,149.7-60
			c41.1-33.4,62.2-66.2,63.7-73.8c-1.6-7.7-22.6-40.5-63.7-73.8c-33.8-27.4-87.1-60-149.7-60S121.9,57,88.2,84.4
			C47,117.7,26,150.5,24.4,158.2z M451.3,158.5L451.3,158.5L451.3,158.5z M451.3,157.8L451.3,157.8L451.3,157.8z"/>
	</g>
	<g>
		<path class="st0" d="M237.8,250c-50.6,0-91.8-41.2-91.8-91.8s41.2-91.8,91.8-91.8s91.8,41.2,91.8,91.8S288.5,250,237.8,250z
			 M237.8,90.7c-37.2,0-67.5,30.3-67.5,67.5c0,37.2,30.3,67.5,67.5,67.5c37.2,0,67.5-30.3,67.5-67.5C305.3,121,275,90.7,237.8,90.7z
			"/>
	</g>
</g>
</svg>
